<?xml version="1.0" encoding="UTF-8"?>
<svg width="40px" height="40px" viewBox="0 0 40 40" version="1.1" xmlns="http://www.w3.org/2000/svg" xmlns:xlink="http://www.w3.org/1999/xlink">
    <!-- Generator: Sketch 43.1 (39012) - http://www.bohemiancoding.com/sketch -->
    <title>el-icon-circle-cross</title>
    <desc>Created with Sketch.</desc>
    <defs></defs>
    <g id="模型浏览" stroke="none" stroke-width="1" fill="none" fill-rule="evenodd">
        <g id="模型预览-批注-匀线" transform="translate(-518.000000, -457.000000)" fill="#FF1717">
            <g id="CLOSE" transform="translate(518.000000, 457.000000)">
                <path d="M20,40 C17.2435754,40 14.6474462,39.4791719 12.2115385,38.4375003 C9.77563077,37.3958283 7.65225231,35.9695606 5.84134646,34.1586535 C4.03043938,32.3477477 2.60417169,30.2243692 1.56249969,27.7884615 C0.520828123,25.3525538 0,22.7564246 0,20 C0,17.2435754 0.520828123,14.6474462 1.56249969,12.2115385 C2.60417169,9.77563077 4.03043938,7.65225231 5.84134646,5.84134769 C7.65225231,4.03043692 9.77563077,2.60417231 12.2115385,1.56249846 C14.6474462,0.520830769 17.2435754,0 20,0 C22.7564246,0 25.3525538,0.520830769 27.7884615,1.56249846 C30.2243692,2.60417231 32.3477477,4.03043692 34.1586523,5.84134769 C35.9695631,7.65225231 37.3958277,9.77563077 38.4375015,12.2115385 C39.4791692,14.6474462 40,17.2435754 40,20 C40,22.7564246 39.4791692,25.3525538 38.4375015,27.7884615 C37.3958277,30.2243692 35.9695631,32.3477477 34.1586523,34.1586535 C32.3477477,35.9695606 30.2243692,37.3958283 27.7884615,38.4375003 C25.3525538,39.4791719 22.7564246,40 20,40 L20,40 Z" id="el-icon-circle-cross"></path>
            </g>
        </g>
    </g>
</svg>